<?xml version="1.0" standalone="no"?>
<!DOCTYPE svg PUBLIC "-//W3C//DTD SVG 20010904//EN"
 "http://www.w3.org/TR/2001/REC-SVG-20010904/DTD/svg10.dtd">
<svg version="1.0" xmlns="http://www.w3.org/2000/svg"
 width="96.000000pt" height="96.000000pt" viewBox="0 0 96.000000 96.000000"
 preserveAspectRatio="xMidYMid meet">
<metadata>
Created by potrace 1.14, written by Peter Selinger 2001-2017
</metadata>
<g transform="translate(0.000000,96.000000) scale(0.100000,-0.100000)"
fill="#000000" stroke="none">
<path d="M425 855 c-33 -32 -33 -78 1 -111 l25 -26 -47 -140 -46 -140 -70 69
c-62 62 -69 73 -59 91 29 54 -9 122 -69 122 -41 0 -80 -39 -80 -80 0 -35 38
-80 68 -80 17 0 20 -14 31 -127 6 -71 14 -143 17 -160 l6 -33 278 0 278 0 6
33 c3 17 11 89 17 160 11 113 14 127 31 127 10 0 30 11 43 25 33 32 33 78 0
110 -65 66 -168 -14 -124 -97 10 -18 3 -29 -57 -89 -38 -38 -71 -65 -75 -61
-4 4 -26 66 -49 137 l-43 131 26 27 c52 51 19 137 -53 137 -19 0 -40 -9 -55
-25z"/>
<path d="M200 152 c0 -26 5 -53 12 -60 17 -17 519 -17 536 0 7 7 12 34 12 60
l0 48 -280 0 -280 0 0 -48z"/>
</g>
</svg>
