<?xml version="1.0" encoding="UTF-8" standalone="no"?>
<!DOCTYPE svg PUBLIC "-//W3C//DTD SVG 1.1//EN" "http://www.w3.org/Graphics/SVG/1.1/DTD/svg11.dtd">
<svg version="1.1" xmlns="http://www.w3.org/2000/svg" xmlns:xlink="http://www.w3.org/1999/xlink" preserveAspectRatio="xMidYMid meet" viewBox="0 0 472 472" width="472" height="472"><defs><path d="M472 0C472 0 472 0 472 0C472 285.28 472 443.77 472 475.47C472 475.47 472 475.47 472 475.47C188.8 475.47 31.47 475.47 0 475.47C0 475.47 0 475.47 0 475.47C0 190.19 0 31.7 0 0C0 0 0 0 0 0C283.2 0 440.53 0 472 0Z" id="a6TFUi5GD"></path><path d="M276.5 32C277.4 32 302 17.8 302.5 17C302.9 16.4 288.7 7.8 276.8 1.3C276.3 1.1 276 7.9 276 16.4C276 25 276.2 32 276.5 32Z" id="b1lUa1pjLS"></path><path d="M429.5 24C435.14 29.64 438.27 32.77 438.9 33.4C444.1 38.6 448.7 42.7 449.2 42.4C449.6 42.1 450 40.3 450 38.4C450 36.5 449.6 35.1 449.2 35.4C448.7 35.7 445.7 33.2 442.5 30C442.11 29.6 440.14 27.6 436.6 24C440.14 20.4 442.11 18.4 442.5 18C445.7 14.8 448.7 12.3 449.2 12.6C449.6 12.9 450 11.5 450 9.6C450 7.7 449.6 5.9 449.2 5.6C448.7 5.3 444.1 9.4 438.9 14.6C437.65 15.85 434.51 18.99 429.5 24Z" id="eJKcju6Yv"></path><path d="M5.2 18.7C5.55 19.05 7.28 20.82 10.4 24C7.28 27.18 5.55 28.95 5.2 29.3C0.9 33.6 0 35.2 0 38C0 38.23 0 39.4 0 41.5L8.7 32.7L17.5 24L8.7 15.3L0 6.5L0 10C0.6 12.93 2.33 15.83 5.2 18.7Z" id="b2nC3NEJWD"></path><path d="M114.4 73C114.6 73 121 69.4 128.5 65.1C129.41 64.57 133.98 61.94 142.2 57.2C137.76 54.68 135.29 53.28 134.8 53C130.8 50.6 124.9 47.2 121.7 45.4C118.5 43.5 115.5 42 115 42C114.5 42 114.1 49 114.1 57.5C114 66 114.2 73 114.4 73Z" id="fnnGZ4Spm"></path><path d="M214.9 45.28L215.52 45.41L216.16 45.59L216.83 45.81L217.54 46.08L218.3 46.4L220.29 47.41L222.02 48.63L223.48 50.02L224.69 51.56L225.64 53.22L226.32 54.97L226.74 56.79L226.9 58.64L226.8 60.5L226.43 62.34L225.8 64.13L224.91 65.85L223.75 67.46L222.33 68.94L220.65 70.27L218.7 71.4L217.71 71.83L216.73 72.17L215.77 72.43L214.81 72.61L213.86 72.71L212.92 72.71L211.99 72.64L211.06 72.47L210.14 72.23L209.23 71.89L208.32 71.46L207.41 70.95L206.5 70.35L205.6 69.66L204.7 68.87L203.8 68L203.21 67.41L202.69 66.86L202.22 66.34L201.81 65.86L201.46 65.39L201.15 64.94L200.88 64.5L200.66 64.05L200.48 63.59L200.33 63.12L200.22 62.62L200.13 62.09L200.07 61.52L200.03 60.91L200.01 60.23L200 59.5L200.03 58.38L200.12 57.3L200.26 56.27L200.47 55.28L200.73 54.34L201.05 53.44L201.44 52.58L201.88 51.77L202.37 51.01L202.93 50.29L203.54 49.61L204.22 48.98L204.95 48.39L205.74 47.85L206.59 47.35L207.5 46.9L208.37 46.51L209.17 46.17L209.92 45.88L210.62 45.64L211.29 45.45L211.92 45.3L212.53 45.2L213.13 45.15L213.71 45.15L214.3 45.19L214.9 45.28ZM210.15 51.12L208.86 51.87L207.66 52.9L206.6 54.2L205.35 56.77L205.04 59.3L205.54 61.69L206.7 63.81L208.38 65.55L210.43 66.8L212.72 67.44L215.11 67.37L217.45 66.46L219.6 64.6L220.41 63.55L221.05 62.47L221.51 61.35L221.8 60.21L221.91 59.06L221.85 57.92L221.6 56.79L221.18 55.68L220.58 54.62L219.8 53.6L218.55 52.42L217.21 51.51L215.81 50.88L214.38 50.53L212.94 50.45L211.52 50.65L210.15 51.12Z" id="af01KjNA"></path><path d="M363 86L363 59L390 59L390 86L363 86ZM368 81L385 81L385 64L368 64L368 81Z" id="a740n7oyg"></path><path d="M52.7 83.6C52.95 83.79 54.18 84.72 56.4 86.4L51.5 90.7L46.6 94.9C48.1 96.04 48.93 96.67 49.1 96.8C50.4 97.9 52.6 99.7 54 100.8C54.17 100.93 55 101.6 56.5 102.8C55 104 54.17 104.67 54 104.8C52.6 105.9 50.4 107.7 49 108.8C48.83 108.93 48 109.6 46.5 110.8C48 112 48.83 112.67 49 112.8C55.5 117.9 56.5 119 55.4 119.7C54.8 120.2 53.1 121.5 51.5 122.8C48.8 124.9 48.8 125.1 50.5 127C52.2 128.9 52.3 128.8 57.9 124.3C61 121.8 63.6 119.4 63.8 119C63.9 118.6 62 116.8 59.6 114.9C57.1 113 55 111.2 55 110.9C55 110.6 57 108.9 59.5 107C62 105.1 64 103.4 64 103.1C64 102.8 61.9 100.7 59.4 98.5C59.09 98.23 57.52 96.86 54.7 94.4C57.46 92.36 58.99 91.23 59.3 91C61.9 89.1 64 87.2 64 86.8C64 86 53.2 77 52.1 77C51.8 77 50.9 77.9 50.3 78.9C49.2 80.6 49.6 81.2 52.7 83.6Z" id="b18PiVad5m"></path><path d="M251 107.5C251 107.8 258 108 266.5 108C275 108 282 107.8 282 107.5C282 107 267.2 80.9 266.7 80.3C266.6 80.2 263 86.2 258.8 93.5C254.5 100.9 251 107.1 251 107.5Z" id="f68cj7P4Rq"></path><path d="M435.9 99C436.4 99 438.2 100.2 439.9 101.6C442.2 103.5 443 105 443 107.5C443 111.3 439.7 116 436.9 116C435.5 116 435 116.7 435 118.9C435 121.8 435.1 121.8 438.3 120.9C440 120.4 443 118.5 444.8 116.5C447.4 113.6 448 112.2 448 108.4C448 102.6 445.2 97.8 440.6 95.6C436 93.4 435 93.6 435 96.5C435 97.9 435.4 99 435.9 99Z" id="c2ph18r0zW"></path><path d="M144.2 114.19L144.38 114.32L144.6 114.5L144.88 114.73L145.2 115.01L145.57 115.34L145.98 115.71L146.42 116.12L146.91 116.57L147.43 117.06L147.98 117.59L148.56 118.14L149.16 118.73L149.8 119.34L150.45 119.99L151.13 120.65L151.82 121.34L152.54 122.04L153.26 122.76L154 123.5L163.5 133L144 152.5L125 133.3L134.3 123.8L135.01 123.05L135.71 122.32L136.4 121.6L137.07 120.9L137.72 120.23L138.36 119.58L138.97 118.95L139.56 118.36L140.12 117.79L140.66 117.25L141.16 116.75L141.63 116.29L142.07 115.87L142.46 115.48L142.82 115.14L143.14 114.84L143.41 114.59L143.63 114.39L143.81 114.24L143.93 114.14L144 114.1L144.07 114.12L144.2 114.19ZM132.5 133L144.5 145L156.1 133.4L150.1 127.3L144.1 121.3L138.3 127.2L132.5 133Z" id="c5J6rEeFG"></path><path d="M353.87 143.18L354.85 143.31L355.8 143.48L356.71 143.7L357.57 143.98L358.37 144.31L359.1 144.7L359.41 144.91L359.73 145.15L360.06 145.43L360.4 145.74L360.75 146.07L361.1 146.44L361.44 146.82L361.79 147.22L362.13 147.65L362.46 148.08L362.78 148.52L363.08 148.97L363.37 149.43L363.63 149.89L363.88 150.35L364.1 150.8L364.57 151.82L364.95 152.82L365.25 153.81L365.47 154.77L365.6 155.73L365.65 156.67L365.62 157.6L365.5 158.52L365.3 159.44L365.01 160.35L364.64 161.26L364.18 162.16L363.64 163.07L363.01 163.97L362.3 164.88L361.5 165.8L360.93 166.42L360.41 166.96L359.93 167.44L359.48 167.85L359.05 168.21L358.62 168.51L358.18 168.76L357.73 168.96L357.24 169.13L356.71 169.25L356.13 169.35L355.48 169.41L354.76 169.46L353.94 169.48L353.03 169.5L352 169.5L350.97 169.5L350.06 169.48L349.24 169.46L348.52 169.41L347.87 169.35L347.29 169.25L346.76 169.13L346.28 168.96L345.82 168.76L345.38 168.51L344.95 168.21L344.52 167.85L344.07 167.44L343.59 166.96L343.07 166.42L342.5 165.8L341.7 164.88L340.99 163.97L340.36 163.07L339.82 162.16L339.36 161.26L338.99 160.35L338.7 159.44L338.5 158.52L338.38 157.6L338.35 156.67L338.4 155.73L338.53 154.77L338.75 153.81L339.05 152.82L339.43 151.82L339.9 150.8L340.12 150.35L340.36 149.89L340.62 149.43L340.9 148.98L341.2 148.53L341.51 148.08L341.82 147.65L342.15 147.24L342.48 146.84L342.81 146.46L343.14 146.11L343.47 145.78L343.79 145.48L344.11 145.22L344.41 144.99L344.7 144.8L345.41 144.41L346.2 144.07L347.05 143.79L347.95 143.55L348.89 143.36L349.86 143.22L350.86 143.14L351.86 143.1L352.87 143.12L353.87 143.18ZM350.54 148.09L349.88 148.2L349.25 148.36L348.66 148.57L348.1 148.84L347.55 149.17L347.03 149.55L346.51 149.99L346 150.5L344.28 152.95L343.54 155.47L343.65 157.94L344.48 160.22L345.91 162.17L347.81 163.68L350.06 164.61L352.52 164.83L355.08 164.2L357.6 162.6L358.6 161.61L359.39 160.51L359.96 159.32L360.32 158.07L360.46 156.77L360.39 155.46L360.11 154.16L359.62 152.88L358.91 151.65L358 150.5L357.49 149.99L356.97 149.55L356.45 149.17L355.9 148.84L355.34 148.57L354.75 148.36L354.12 148.2L353.46 148.09L352.75 148.02L352 148L351.25 148.02L350.54 148.09Z" id="b1YMTFf8IB"></path><path d="M428 183.5L418.5 183.2L409 182.9L409 185.9L409 189L421 189L433 189L433 176.5L433 164C431.5 164 430.67 164 430.5 164C428 164 428 164 428 173.7C428 175.01 428 178.27 428 183.5Z" id="b2B7N8QxvP"></path><path d="M36.8 210.8L23.5 210.5L23.2 197.2L22.9 184L50 184L50 211.1L36.8 210.8ZM28.2 197.2L28.5 205.5L36.8 205.8L45 206.1L45 189L27.9 189L28.2 197.2Z" id="b2hKpswva"></path><path d="M100.1 214.6C101.8 216.7 103.1 216.3 106.2 212.7C106.39 212.49 107.32 211.42 109 209.5L113 214L117 218.5C119.28 215.92 120.55 214.49 120.8 214.2C122.8 211.9 124.8 210 125.1 210C125.5 210 127.3 212 129.3 214.5C129.53 214.81 130.7 216.34 132.8 219.1L137.1 214L141.3 209C142.8 211.1 143.63 212.27 143.8 212.5C146.5 216.2 148.1 216.8 149.9 214.6C150.8 213.6 149.9 211.9 146.1 207.1C145.77 206.69 144.1 204.62 141.1 200.9L137.1 205.9L133.2 211L129.2 206L125.2 201L121.1 205.8L117 210.5L112.8 205.8L108.5 201.1L103.7 207.2C100.7 211.47 99.5 213.93 100.1 214.6Z" id="a1mJm7KmG7"></path><path d="M330.6 224.7C332.3 226 332.8 225.8 335.6 222.5C335.81 222.26 336.88 221.06 338.8 218.9C341.02 221.66 342.25 223.19 342.5 223.5C344.6 226 346.6 228 347 228C347.3 228 349.2 225.9 351 223.3C351.23 222.99 352.36 221.46 354.4 218.7L358.7 223.6L363 228.5C364.26 227 364.96 226.17 365.1 226C366.3 224.6 368.1 222.4 369.2 221C370.4 219.5 371.4 219 371.8 219.6C372.2 220.2 373.5 221.9 374.7 223.4C376.7 225.9 377.1 226 379 224.7C381.2 223.2 381.5 223.7 371.2 211C371 210.7 370.3 211.2 369.7 212.1C369 212.9 367.2 215.2 365.7 217.1C365.51 217.33 364.58 218.46 362.9 220.5C361.7 219 361.03 218.17 360.9 218C359.7 216.6 357.9 214.4 356.8 213C356.67 212.84 356.04 212.04 354.9 210.6C353.28 212.64 352.38 213.77 352.2 214C350.7 215.9 348.9 218.1 348.3 218.9C347.2 220.3 346.5 219.9 342.7 215.6C342.41 215.27 340.98 213.64 338.4 210.7L333.5 217C330.3 221.2 329.33 223.77 330.6 224.7Z" id="b4KHBe5eb"></path><path d="M250.5 257L231.5 238L250.5 219L269.5 238L250.5 257ZM250.07 227.17L249.74 227.37L249.36 227.65L248.91 228L248.42 228.4L247.87 228.86L247.29 229.37L246.68 229.93L246.03 230.53L245.37 231.16L244.69 231.82L244 232.5L238.6 238L244.5 244L250.5 250L262.5 238L257 232.5L256.31 231.82L255.63 231.16L254.97 230.53L254.32 229.93L253.71 229.37L253.13 228.86L252.58 228.4L252.09 228L251.64 227.65L251.26 227.37L250.93 227.17L250.68 227.04L250.5 227L250.32 227.04L250.07 227.17Z" id="bd4DyHOvV"></path><path d="M166.1 242.14L167.01 242.28L167.91 242.47L168.8 242.72L169.67 243.03L170.51 243.39L171.32 243.82L172.1 244.3L172.83 244.81L173.51 245.34L174.13 245.87L174.7 246.42L175.22 246.98L175.69 247.56L176.12 248.17L176.49 248.81L176.82 249.47L177.11 250.17L177.35 250.91L177.56 251.69L177.72 252.51L177.84 253.38L177.93 254.3L177.98 255.27L178 256.3L177.99 256.98L177.98 257.61L177.94 258.19L177.89 258.73L177.82 259.24L177.73 259.72L177.62 260.18L177.48 260.61L177.31 261.04L177.11 261.45L176.88 261.87L176.62 262.28L176.32 262.71L175.98 263.15L175.6 263.6L175.17 264.09L174.7 264.6L174.22 265.12L173.76 265.59L173.33 266.02L172.9 266.4L172.49 266.75L172.08 267.05L171.67 267.32L171.25 267.56L170.82 267.76L170.38 267.94L169.91 268.1L169.42 268.24L168.9 268.35L168.34 268.46L167.74 268.55L167.1 268.63L166.4 268.7L165.32 268.78L164.29 268.8L163.28 268.77L162.32 268.69L161.39 268.55L160.5 268.36L159.64 268.12L158.82 267.82L158.04 267.47L157.29 267.06L156.57 266.6L155.89 266.08L155.24 265.52L154.63 264.89L154.05 264.22L153.51 263.48L153 262.7L152.39 261.6L151.9 260.46L151.53 259.28L151.27 258.08L151.13 256.87L151.1 255.64L151.18 254.42L151.37 253.2L151.66 252L152.05 250.83L152.55 249.69L153.14 248.59L153.83 247.54L154.61 246.54L155.48 245.62L156.45 244.77L157.5 244L158.24 243.55L159.03 243.16L159.84 242.83L160.69 242.56L161.56 242.34L162.45 242.19L163.35 242.09L164.27 242.05L165.18 242.07L166.1 242.14ZM162.44 247.52L161.24 248.1L160.06 248.9L158.9 249.9L158.02 250.87L157.31 251.8L156.77 252.72L156.39 253.64L156.18 254.56L156.12 255.52L156.23 256.51L156.49 257.56L156.92 258.69L157.5 259.9L157.99 260.79L158.49 261.56L159.03 262.2L159.63 262.73L160.29 263.15L161.03 263.48L161.86 263.72L162.81 263.88L163.89 263.97L165.1 264L167.09 263.73L168.85 262.98L170.34 261.83L171.52 260.36L172.38 258.66L172.86 256.81L172.95 254.88L172.61 252.97L171.8 251.15L170.5 249.5L169.45 248.56L168.35 247.84L167.21 247.34L166.04 247.06L164.85 247L163.65 247.15L162.44 247.52Z" id="b1IOjcsqF5"></path><path d="M412 269.4C412 269.7 419 270 427.5 270C436 270 443 269.8 443 269.5C443 269.2 439.5 262.9 435.1 255.5C434.57 254.6 431.94 250.1 427.2 242L419.6 255.4C414.53 264.53 412 269.2 412 269.4Z" id="dySPV6kIz"></path><path d="M72 283L62 283L52 283L52 285.5L52 288L64.5 288L77 288L77 275.5L77 263L74.5 263L72 263L72 273L72 283Z" id="b2LPf3jhm"></path><path d="M288.3 296.7C289.9 298.3 290.4 298.1 296.9 291.6C297.37 291.14 299.7 288.84 303.9 284.7C307.8 288.78 309.97 291.05 310.4 291.5C316.9 298.2 317.1 298.3 319.1 296.5C321.1 294.6 321 294.6 312.8 286.3C308.3 281.7 304.3 278 304 278C303.7 278 299.7 281.8 295 286.5C287 294.5 286.6 295.1 288.3 296.7Z" id="b5a7NkVhN1"></path><path d="M186.1 333.6C187.9 335.7 189.3 335.2 192.1 331.4C192.28 331.17 193.18 330 194.8 327.9L198.8 333L202.8 338L206.9 333.2L211 328.5L215 333L219 337.5L223 333L227 328.5C228.74 330.48 229.71 331.58 229.9 331.8C232.4 334.7 233.1 335 234.9 334C237.3 332.7 237.2 332.5 231.6 325.5C229.4 322.7 227.5 320.3 227.3 320.1C227.1 319.8 226.2 320.6 225.4 321.9C224.5 323.1 222.7 325.3 221.4 326.8C221.24 326.98 220.44 327.88 219 329.5C216.36 326.5 214.89 324.83 214.6 324.5C212.1 321.7 210 319.9 210 320.5C210 321 208.4 323.3 206.5 325.5C206.27 325.77 205.1 327.1 203 329.5L198.7 324.7L194.5 319.9L189.8 326.1C186.8 330.43 185.57 332.93 186.1 333.6Z" id="jmyV8zeia"></path><path d="M332 377C333.98 375.86 335.08 375.23 335.3 375.1C337 374.1 343.1 370.5 348.8 367.3C354.4 364 359 361.1 359 360.8C359 360.4 354.4 357.5 348.8 354.3C343.1 351 337 347.5 335.3 346.5C335.08 346.37 333.98 345.74 332 344.6L332 360.8L332 377Z" id="b5AIAzh4rf"></path><path d="M68.14 346.56L69.89 347.17L71.5 348.01L72.96 349.05L74.27 350.26L75.4 351.63L76.36 353.12L77.12 354.72L77.68 356.41L78.02 358.14L78.14 359.91L78.01 361.69L77.64 363.45L77 365.17L76.09 366.83L74.9 368.4L74.25 369.1L73.58 369.74L72.9 370.34L72.19 370.88L71.46 371.36L70.71 371.8L69.94 372.18L69.16 372.51L68.36 372.78L67.55 373L66.72 373.16L65.88 373.27L65.02 373.33L64.16 373.33L63.28 373.28L62.4 373.17L61.5 373L60.31 372.67L59.18 372.26L58.12 371.77L57.12 371.2L56.19 370.55L55.33 369.83L54.55 369.05L53.84 368.2L53.21 367.29L52.66 366.32L52.19 365.31L51.81 364.24L51.52 363.13L51.32 361.97L51.22 360.78L51.21 359.56L51.3 358.3L51.42 357.48L51.6 356.66L51.85 355.84L52.15 355.02L52.5 354.21L52.9 353.42L53.34 352.64L53.83 351.89L54.35 351.17L54.91 350.48L55.5 349.83L56.12 349.22L56.76 348.66L57.43 348.15L58.11 347.7L58.8 347.32L59.5 347L59.71 346.91L59.93 346.83L60.18 346.75L60.44 346.67L60.71 346.59L61 346.52L61.29 346.45L61.6 346.39L61.9 346.33L62.22 346.28L62.53 346.24L62.84 346.2L63.15 346.16L63.45 346.14L63.74 346.12L64.03 346.1L64.3 346.1L66.28 346.19L68.14 346.56ZM62.64 351.39L61.72 351.77L60.8 352.31L59.87 353.02L58.9 353.9L57.43 355.7L56.5 357.59L56.07 359.5L56.12 361.37L56.61 363.12L57.53 364.71L58.85 366.05L60.53 367.09L62.56 367.76L64.9 368L65.78 367.98L66.56 367.92L67.26 367.82L67.89 367.66L68.46 367.45L68.99 367.18L69.48 366.84L69.96 366.44L70.43 365.96L70.9 365.4L71.85 363.99L72.53 362.52L72.94 361.04L73.1 359.56L73.01 358.12L72.67 356.75L72.09 355.48L71.26 354.32L70.2 353.32L68.9 352.5L67.69 351.92L66.56 351.49L65.51 351.23L64.52 351.12L63.56 351.17L62.64 351.39Z" id="bmsiKf2Xk"></path><path d="M120.7 396.3C122.3 397.9 122.8 397.7 129.2 391.3C129.65 390.85 131.92 388.62 136 384.6C140.14 388.68 142.44 390.95 142.9 391.4C148.9 397.3 150.1 398.2 151.4 397C152.3 396.3 153 395.2 153 394.6C153 394 149.3 389.8 144.7 385.2C144.15 384.65 141.42 381.92 136.5 377L127.7 385.8C121.97 391.67 119.63 395.17 120.7 396.3Z" id="cxmXtRYpv"></path><path d="M277.9 377.28L278.52 377.41L279.16 377.59L279.83 377.81L280.54 378.08L281.3 378.4L283.29 379.41L285.02 380.63L286.48 382.02L287.69 383.56L288.64 385.22L289.32 386.97L289.74 388.79L289.9 390.64L289.8 392.5L289.43 394.34L288.8 396.13L287.91 397.85L286.75 399.46L285.33 400.94L283.65 402.27L281.7 403.4L280.71 403.83L279.73 404.17L278.77 404.43L277.81 404.61L276.86 404.71L275.92 404.71L274.99 404.64L274.06 404.47L273.14 404.23L272.23 403.89L271.32 403.46L270.41 402.95L269.5 402.35L268.6 401.66L267.7 400.87L266.8 400L266.21 399.41L265.69 398.86L265.22 398.34L264.81 397.86L264.46 397.39L264.15 396.94L263.88 396.5L263.66 396.05L263.48 395.59L263.33 395.12L263.22 394.62L263.13 394.09L263.07 393.52L263.03 392.91L263.01 392.23L263 391.5L263.03 390.38L263.12 389.3L263.26 388.27L263.47 387.28L263.73 386.34L264.05 385.44L264.44 384.58L264.88 383.77L265.37 383.01L265.93 382.29L266.54 381.61L267.22 380.98L267.95 380.39L268.74 379.85L269.59 379.35L270.5 378.9L271.37 378.51L272.17 378.17L272.92 377.88L273.62 377.64L274.29 377.45L274.92 377.3L275.53 377.2L276.13 377.15L276.71 377.15L277.3 377.19L277.9 377.28ZM273.15 383.12L271.86 383.87L270.66 384.9L269.6 386.2L268.35 388.77L268.04 391.3L268.54 393.69L269.7 395.81L271.38 397.55L273.43 398.8L275.72 399.44L278.11 399.37L280.45 398.46L282.6 396.6L283.41 395.55L284.05 394.47L284.51 393.35L284.8 392.21L284.91 391.06L284.85 389.92L284.6 388.79L284.18 387.68L283.58 386.62L282.8 385.6L281.55 384.42L280.21 383.51L278.81 382.88L277.38 382.53L275.94 382.45L274.52 382.65L273.15 383.12Z" id="a4Njgv0B4"></path><path d="M415.4 387.6C419.2 388.5 421.5 391.7 421.5 396C421.5 400.3 419.2 403.5 415.4 404.4C413.6 404.9 413 405.7 413 407.6C413 409.9 413.3 410.1 415.8 409.5C430.5 405.9 430.5 386.1 415.8 382.5C413.3 381.9 413 382.1 413 384.4C413 386.3 413.6 387.1 415.4 387.6Z" id="bjhAjsaj5"></path><path d="M205.6 415.7C205.83 415.89 207 416.82 209.1 418.5C206.22 421.08 204.62 422.51 204.3 422.8C200.1 426.5 199.7 427.2 201.1 428.3C201.9 428.9 204.1 430.7 206 432.2C206.23 432.38 207.36 433.28 209.4 434.9C207.96 436.04 207.16 436.67 207 436.8C205.6 437.9 203.4 439.7 202 440.9C201.83 441.04 201 441.74 199.5 443C201.9 445.04 203.23 446.17 203.5 446.4C206.6 449.2 208.4 449.9 211.5 449.9C211.77 449.9 213.1 449.9 215.5 449.9L211.5 446.4L207.5 442.9C209.9 440.86 211.23 439.73 211.5 439.5C213.7 437.6 215.8 436.1 216.3 436C218 435.9 216.7 434.1 212.5 431C210 429.1 208 427.3 208 426.8C208 426.4 210 424.6 212.5 422.8C214.9 421 216.9 419.2 217 418.9C217 418.3 205.6 409 204.8 409C204.6 409 203.9 409.9 203.3 411C202.2 412.7 202.4 413.3 205.6 415.7Z" id="bBdjd9dyo"></path><path d="M37.8 422.3C40.8 425 45.8 426.1 50.1 425C57.4 423 63.7 412 57.5 412C55.7 412 55 412.5 55 413.8C55 416.9 50.8 420 46.6 420C42.7 420 38 416.5 38 413.5C38 412.6 37.1 412 35.5 412C33.9 412 33 412.6 33 413.5C33 415.7 35.4 420.2 37.8 422.3Z" id="b1FmDETQLo"></path></defs><g><g><g><use xlink:href="#a6TFUi5GD" opacity="1" fill="#6c708b" fill-opacity="1"></use><g><use xlink:href="#a6TFUi5GD" opacity="1" fill-opacity="0" stroke="#000000" stroke-width="1" stroke-opacity="0"></use></g></g><g><use xlink:href="#b1lUa1pjLS" opacity="0.57" fill="#575b76" fill-opacity="1"></use><g><use xlink:href="#b1lUa1pjLS" opacity="0.57" fill-opacity="0" stroke="#000000" stroke-width="1" stroke-opacity="0"></use></g></g><g><use xlink:href="#eJKcju6Yv" opacity="0.57" fill="#575b76" fill-opacity="1"></use><g><use xlink:href="#eJKcju6Yv" opacity="0.57" fill-opacity="0" stroke="#000000" stroke-width="1" stroke-opacity="0"></use></g></g><g><use xlink:href="#b2nC3NEJWD" opacity="0.57" fill="#575b76" fill-opacity="1"></use><g><use xlink:href="#b2nC3NEJWD" opacity="0.57" fill-opacity="0" stroke="#000000" stroke-width="1" stroke-opacity="0"></use></g></g><g><use xlink:href="#fnnGZ4Spm" opacity="0.57" fill="#575b76" fill-opacity="1"></use><g><use xlink:href="#fnnGZ4Spm" opacity="0.57" fill-opacity="0" stroke="#000000" stroke-width="1" stroke-opacity="0"></use></g></g><g><use xlink:href="#af01KjNA" opacity="0.57" fill="#575b76" fill-opacity="1"></use><g><use xlink:href="#af01KjNA" opacity="0.57" fill-opacity="0" stroke="#000000" stroke-width="1" stroke-opacity="0"></use></g></g><g><use xlink:href="#a740n7oyg" opacity="0.57" fill="#575b76" fill-opacity="1"></use><g><use xlink:href="#a740n7oyg" opacity="0.57" fill-opacity="0" stroke="#000000" stroke-width="1" stroke-opacity="0"></use></g></g><g><use xlink:href="#b18PiVad5m" opacity="0.57" fill="#575b76" fill-opacity="1"></use><g><use xlink:href="#b18PiVad5m" opacity="0.57" fill-opacity="0" stroke="#000000" stroke-width="1" stroke-opacity="0"></use></g></g><g><use xlink:href="#f68cj7P4Rq" opacity="0.57" fill="#575b76" fill-opacity="1"></use><g><use xlink:href="#f68cj7P4Rq" opacity="0.57" fill-opacity="0" stroke="#000000" stroke-width="1" stroke-opacity="0"></use></g></g><g><use xlink:href="#c2ph18r0zW" opacity="0.57" fill="#575b76" fill-opacity="1"></use><g><use xlink:href="#c2ph18r0zW" opacity="0.57" fill-opacity="0" stroke="#000000" stroke-width="1" stroke-opacity="0"></use></g></g><g><use xlink:href="#c5J6rEeFG" opacity="0.57" fill="#575b76" fill-opacity="1"></use><g><use xlink:href="#c5J6rEeFG" opacity="0.57" fill-opacity="0" stroke="#000000" stroke-width="1" stroke-opacity="0"></use></g></g><g><use xlink:href="#b1YMTFf8IB" opacity="0.57" fill="#575b76" fill-opacity="1"></use><g><use xlink:href="#b1YMTFf8IB" opacity="0.57" fill-opacity="0" stroke="#000000" stroke-width="1" stroke-opacity="0"></use></g></g><g><use xlink:href="#b2B7N8QxvP" opacity="0.57" fill="#575b76" fill-opacity="1"></use><g><use xlink:href="#b2B7N8QxvP" opacity="0.57" fill-opacity="0" stroke="#000000" stroke-width="1" stroke-opacity="0"></use></g></g><g><use xlink:href="#b2hKpswva" opacity="0.57" fill="#575b76" fill-opacity="1"></use><g><use xlink:href="#b2hKpswva" opacity="0.57" fill-opacity="0" stroke="#000000" stroke-width="1" stroke-opacity="0"></use></g></g><g><use xlink:href="#a1mJm7KmG7" opacity="0.57" fill="#575b76" fill-opacity="1"></use><g><use xlink:href="#a1mJm7KmG7" opacity="0.57" fill-opacity="0" stroke="#000000" stroke-width="1" stroke-opacity="0"></use></g></g><g><use xlink:href="#b4KHBe5eb" opacity="0.57" fill="#575b76" fill-opacity="1"></use><g><use xlink:href="#b4KHBe5eb" opacity="0.57" fill-opacity="0" stroke="#000000" stroke-width="1" stroke-opacity="0"></use></g></g><g><use xlink:href="#bd4DyHOvV" opacity="0.57" fill="#575b76" fill-opacity="1"></use><g><use xlink:href="#bd4DyHOvV" opacity="0.57" fill-opacity="0" stroke="#000000" stroke-width="1" stroke-opacity="0"></use></g></g><g><use xlink:href="#b1IOjcsqF5" opacity="0.57" fill="#575b76" fill-opacity="1"></use><g><use xlink:href="#b1IOjcsqF5" opacity="0.57" fill-opacity="0" stroke="#000000" stroke-width="1" stroke-opacity="0"></use></g></g><g><use xlink:href="#dySPV6kIz" opacity="0.57" fill="#575b76" fill-opacity="1"></use><g><use xlink:href="#dySPV6kIz" opacity="0.57" fill-opacity="0" stroke="#000000" stroke-width="1" stroke-opacity="0"></use></g></g><g><use xlink:href="#b2LPf3jhm" opacity="0.57" fill="#575b76" fill-opacity="1"></use><g><use xlink:href="#b2LPf3jhm" opacity="0.57" fill-opacity="0" stroke="#000000" stroke-width="1" stroke-opacity="0"></use></g></g><g><use xlink:href="#b5a7NkVhN1" opacity="0.57" fill="#575b76" fill-opacity="1"></use><g><use xlink:href="#b5a7NkVhN1" opacity="0.57" fill-opacity="0" stroke="#000000" stroke-width="1" stroke-opacity="0"></use></g></g><g><use xlink:href="#jmyV8zeia" opacity="0.57" fill="#575b76" fill-opacity="1"></use><g><use xlink:href="#jmyV8zeia" opacity="0.57" fill-opacity="0" stroke="#000000" stroke-width="1" stroke-opacity="0"></use></g></g><g><use xlink:href="#b5AIAzh4rf" opacity="0.57" fill="#575b76" fill-opacity="1"></use><g><use xlink:href="#b5AIAzh4rf" opacity="0.57" fill-opacity="0" stroke="#000000" stroke-width="1" stroke-opacity="0"></use></g></g><g><use xlink:href="#bmsiKf2Xk" opacity="0.57" fill="#575b76" fill-opacity="1"></use><g><use xlink:href="#bmsiKf2Xk" opacity="0.57" fill-opacity="0" stroke="#000000" stroke-width="1" stroke-opacity="0"></use></g></g><g><use xlink:href="#cxmXtRYpv" opacity="0.57" fill="#575b76" fill-opacity="1"></use><g><use xlink:href="#cxmXtRYpv" opacity="0.57" fill-opacity="0" stroke="#000000" stroke-width="1" stroke-opacity="0"></use></g></g><g><use xlink:href="#a4Njgv0B4" opacity="0.57" fill="#575b76" fill-opacity="1"></use><g><use xlink:href="#a4Njgv0B4" opacity="0.57" fill-opacity="0" stroke="#000000" stroke-width="1" stroke-opacity="0"></use></g></g><g><use xlink:href="#bjhAjsaj5" opacity="0.57" fill="#575b76" fill-opacity="1"></use><g><use xlink:href="#bjhAjsaj5" opacity="0.57" fill-opacity="0" stroke="#000000" stroke-width="1" stroke-opacity="0"></use></g></g><g><use xlink:href="#bBdjd9dyo" opacity="0.57" fill="#575b76" fill-opacity="1"></use><g><use xlink:href="#bBdjd9dyo" opacity="0.57" fill-opacity="0" stroke="#000000" stroke-width="1" stroke-opacity="0"></use></g></g><g><use xlink:href="#b1FmDETQLo" opacity="0.57" fill="#575b76" fill-opacity="1"></use><g><use xlink:href="#b1FmDETQLo" opacity="0.57" fill-opacity="0" stroke="#000000" stroke-width="1" stroke-opacity="0"></use></g></g></g></g></svg>