<svg width="450" height="470" xmlns="http://www.w3.org/2000/svg" preserveAspectRatio="xMidYMid meet">
 <metadata>Created by potrace 1.14, written by Peter Selinger 2001-2017</metadata>

 <g>
  <title>background</title>
  <rect fill="#cddaf2" id="canvas_background" height="472" width="452" y="-1" x="-1"/>
 </g>
 <g>
  <title>Layer 1</title>
  <g id="svg_1" fill="#000000" transform="translate(0,470) scale(0.10000000149011612,-0.10000000149011612) ">
   <path fill="#bbcaed" id="svg_2" d="m2760,4536c0,-86 2,-156 5,-156c9,0 255,142 260,150c4,6 -138,92 -257,157c-5,2 -8,-66 -8,-151z"/>
   <path fill="#bbcaed" id="svg_3" d="m4389,4554l-94,-94l94,-94c52,-52 98,-93 103,-90c4,3 8,21 8,40c0,19 -4,33 -8,30c-5,-3 -35,22 -67,54l-59,60l59,60c32,32 62,57 67,54c4,-3 8,11 8,30c0,19 -4,37 -8,40c-5,3 -51,-38 -103,-90z"/>
   <path fill="#bbcaed" id="svg_4" d="m0,4600c0,-28 9,-44 52,-87l52,-53l-52,-53c-43,-43 -52,-59 -52,-87l0,-35l87,88l88,87l-88,87l-87,88l0,-35z"/>
   <path fill="#bbcaed" id="svg_5" d="m1141,4125c-1,-85 1,-155 3,-155c2,0 66,36 141,79l137,79l-74,42c-40,24 -99,58 -131,76c-32,19 -62,34 -67,34c-5,0 -9,-70 -9,-155z"/>
   <path fill="#bbcaed" id="svg_6" d="m2075,4231c-50,-23 -75,-65 -75,-126c0,-41 5,-52 38,-85c48,-49 96,-59 149,-34c111,55 109,202 -4,250c-42,18 -60,17 -108,-5zm123,-67c29,-33 28,-76 -2,-110c-67,-79 -189,19 -130,104c33,48 92,50 132,6z"/>
   <path fill="#bbcaed" id="svg_7" d="m3630,3975l0,-135l135,0l135,0l0,135l0,135l-135,0l-135,0l0,-135zm220,0l0,-85l-85,0l-85,0l0,85l0,85l85,0l85,0l0,-85z"/>
   <path fill="#bbcaed" id="svg_8" d="m503,3911c-11,-17 -7,-23 24,-47l37,-28l-49,-43l-49,-42l25,-19c13,-11 35,-29 49,-40l25,-20l-25,-20c-14,-11 -36,-29 -50,-40l-25,-20l25,-20c65,-51 75,-62 64,-69c-6,-5 -23,-18 -39,-31c-27,-21 -27,-23 -10,-42c17,-19 18,-18 74,27c31,25 57,49 59,53c1,4 -18,22 -42,41c-25,19 -46,37 -46,40c0,3 20,20 45,39c25,19 45,36 45,39c0,3 -21,24 -46,46l-47,41l46,34c26,19 47,38 47,42c0,8 -108,98 -119,98c-3,0 -12,-9 -18,-19z"/>
   <path fill="#bbcaed" id="svg_9" d="m2588,3765c-43,-74 -78,-136 -78,-140c0,-3 70,-5 155,-5c85,0 155,2 155,5c0,5 -148,266 -153,272c-1,1 -37,-59 -79,-132z"/>
   <path fill="#bbcaed" id="svg_10" d="m4350,3735c0,-14 4,-25 9,-25c5,0 23,-12 40,-26c23,-19 31,-34 31,-59c0,-38 -33,-85 -61,-85c-14,0 -19,-7 -19,-29c0,-29 1,-29 33,-20c17,5 47,24 65,44c26,29 32,43 32,81c0,58 -28,106 -74,128c-46,22 -56,20 -56,-9z"/>
   <path fill="#bbcaed" id="svg_11" d="m1343,3462l-93,-95l95,-96l95,-96l98,98l97,97l-95,95c-52,52 -97,95 -100,94c-3,-1 -47,-44 -97,-97zm160,-154l-58,-58l-60,60l-60,60l58,58l58,59l60,-60l60,-61l-58,-58z"/>
   <path fill="#bbcaed" id="svg_12" d="m3447,3252c-15,-9 -37,-36 -48,-60c-27,-55 -19,-101 26,-150c32,-35 37,-37 95,-37c58,0 63,2 95,37c45,49 53,95 26,150c-11,24 -34,51 -50,61c-37,22 -108,21 -144,-1zm133,-57c34,-37 33,-90 -4,-121c-82,-71 -191,42 -116,121c17,18 34,25 60,25c26,0 43,-7 60,-25z"/>
   <path fill="#bbcaed" id="svg_13" d="m4280,2963l0,-98l-95,3l-95,3l0,-30l0,-31l120,0l120,0l0,125l0,125l-25,0c-25,0 -25,0 -25,-97z"/>
   <path fill="#bbcaed" id="svg_14" d="m232,2728l3,-133l133,-3l132,-3l0,136l0,135l-135,0l-136,0l3,-132zm218,-3l0,-86l-82,3l-83,3l-3,83l-3,82l86,0l85,0l0,-85z"/>
   <path fill="#bbcaed" id="svg_15" d="m1037,2628c-37,-47 -45,-64 -36,-74c17,-21 30,-17 61,19l28,32l40,-45l40,-45l38,43c20,23 40,42 43,42c4,0 22,-20 42,-45l35,-46l43,51l42,50l25,-35c27,-37 43,-43 61,-21c9,10 0,27 -38,75l-50,62l-40,-50l-39,-51l-40,50l-40,50l-41,-48l-41,-47l-42,47l-43,47l-48,-61z"/>
   <path fill="#bbcaed" id="svg_16" d="m3335,2530c-46,-60 -48,-63 -29,-77c17,-13 22,-11 50,22l32,36l37,-46c21,-25 41,-45 45,-45c3,0 22,21 40,47l34,46l43,-49l43,-49l21,25c12,14 30,36 41,50c12,15 22,20 26,14c4,-6 17,-23 29,-38c20,-25 24,-26 43,-13c22,15 25,10 -78,137c-2,3 -9,-2 -15,-11c-7,-8 -25,-31 -40,-50l-28,-34l-20,25c-12,14 -30,36 -41,50l-19,24l-27,-34c-15,-19 -33,-41 -39,-49c-11,-14 -18,-10 -56,33l-43,49l-49,-63z"/>
   <path fill="#bbcaed" id="svg_17" d="m2410,2415l-95,-95l95,-95l95,-95l95,95l95,95l-95,95l-95,95l-95,-95zm160,-40l55,-55l-60,-60l-60,-60l-60,60l-59,60l54,55c30,30 59,55 65,55c6,0 35,-25 65,-55z"/>
   <path fill="#bbcaed" id="svg_18" d="m1575,2260c-62,-41 -83,-126 -45,-187c28,-46 72,-66 134,-60c41,4 55,10 83,41c28,30 33,43 33,83c0,60 -16,91 -59,120c-43,29 -105,30 -146,3zm130,-55c52,-51 16,-145 -54,-145c-43,0 -60,9 -76,41c-22,42 -18,67 14,100c38,37 82,39 116,4z"/>
   <path fill="#bbcaed" id="svg_19" d="m4196,2146c-42,-74 -76,-137 -76,-140c0,-3 70,-6 155,-6c85,0 155,2 155,5c0,3 -35,66 -79,140l-79,135l-76,-134z"/>
   <path fill="#bbcaed" id="svg_20" d="m720,1970l0,-100l-100,0l-100,0l0,-25l0,-25l125,0l125,0l0,125l0,125l-25,0l-25,0l0,-100z"/>
   <path fill="#bbcaed" id="svg_21" d="m2950,1835c-80,-80 -84,-86 -67,-102c16,-16 21,-14 86,51l70,69l65,-68c65,-67 67,-68 87,-50c20,19 19,19 -63,102c-45,46 -85,83 -88,83c-3,0 -43,-38 -90,-85z"/>
   <path fill="#bbcaed" id="svg_22" d="m1898,1439c-37,-48 -45,-65 -37,-75c18,-21 32,-16 60,22l27,35l40,-51l40,-50l41,48l41,47l40,-45l40,-45l40,45l40,45l29,-33c25,-29 32,-32 50,-22c24,13 23,15 -33,85c-22,28 -41,52 -43,54c-2,3 -11,-5 -19,-18c-9,-12 -27,-34 -40,-49l-24,-27l-44,50c-25,28 -46,46 -46,40c0,-5 -16,-28 -35,-50l-35,-40l-43,48l-42,48l-47,-62z"/>
   <path fill="#bbcaed" id="svg_23" d="m3320,1092l0,-162l33,19c17,10 78,46 135,78c56,33 102,62 102,65c0,4 -46,33 -102,65c-57,33 -118,68 -135,78l-33,19l0,-162z"/>
   <path fill="#bbcaed" id="svg_24" d="m595,1230c-40,-16 -77,-67 -82,-113c-8,-72 33,-131 102,-147c51,-11 98,5 134,46c76,86 9,226 -106,223c-15,0 -37,-4 -48,-9zm94,-55c47,-24 56,-83 20,-129c-16,-20 -29,-26 -60,-26c-83,0 -118,83 -60,141c33,32 58,36 100,14z"/>
   <path fill="#bbcaed" id="svg_25" d="m1277,842c-83,-83 -86,-88 -70,-105c16,-16 21,-14 85,50l68,67l69,-68c60,-59 72,-68 85,-56c9,7 16,18 16,24c0,6 -37,48 -83,94l-82,82l-88,-88z"/>
   <path fill="#bbcaed" id="svg_26" d="m2705,911c-50,-23 -75,-65 -75,-126c0,-41 5,-52 38,-85c48,-49 96,-59 149,-34c111,55 109,202 -4,250c-42,18 -60,17 -108,-5zm123,-67c29,-33 28,-76 -2,-110c-67,-79 -189,19 -130,104c33,48 92,50 132,6z"/>
   <path fill="#bbcaed" id="svg_27" d="m4130,856c0,-19 6,-27 24,-32c38,-9 61,-41 61,-84c0,-43 -23,-75 -61,-84c-18,-5 -24,-13 -24,-32c0,-23 3,-25 28,-19c147,36 147,234 0,270c-25,6 -28,4 -28,-19z"/>
   <path fill="#bbcaed" id="svg_28" d="m2033,590c-11,-17 -9,-23 23,-47l35,-28l-48,-43c-42,-37 -46,-44 -32,-55c8,-6 30,-24 49,-39l34,-27l-24,-19c-14,-11 -36,-29 -50,-41l-25,-21l40,-34c31,-28 49,-35 80,-35l40,0l-40,35l-40,35l40,34c22,19 43,34 48,35c17,1 4,19 -38,50c-25,19 -45,37 -45,42c0,4 20,22 45,40c24,18 44,36 45,39c0,6 -114,99 -122,99c-2,0 -9,-9 -15,-20z"/>
   <path fill="#bbcaed" id="svg_29" d="m330,565c0,-22 24,-67 48,-88c30,-27 80,-38 123,-27c73,20 136,130 74,130c-18,0 -25,-5 -25,-18c0,-31 -42,-62 -84,-62c-39,0 -86,35 -86,65c0,9 -9,15 -25,15c-16,0 -25,-6 -25,-15z"/>
  </g>
 </g>
</svg>